<svg width="30" height="45" viewBox="0 0 30 45" fill="none" xmlns="http://www.w3.org/2000/svg">
<path fill-rule="evenodd" clip-rule="evenodd" d="M14.7916 37.4624C8.50107 37.4624 3.93384 33.822 3.93384 29.2657C3.93384 24.7095 7.23375 21.0159 14.7916 20.9627C22.3495 20.9095 25.756 24.7095 25.756 29.2657C25.756 33.822 20.7097 37.4624 14.7916 37.4624ZM20.5991 24.5988H9.17055C7.15614 24.5988 5.5232 26.2317 5.5232 28.2461C5.5232 30.2605 7.15614 31.8936 9.17055 31.8936C9.17055 31.8936 11.9536 30.6778 14.7633 30.6778C17.6663 30.6778 20.5991 31.8936 20.5991 31.8936C22.6135 31.8936 24.2465 30.2605 24.2465 28.2461C24.2465 26.2317 22.6135 24.5988 20.5991 24.5988Z" fill="white"/>
<path fill-rule="evenodd" clip-rule="evenodd" d="M15.1897 21.1755L17.5316 5.31461C17.5316 5.31461 18.4364 0.790498 22.3218 0.843728C26.2072 0.896957 29.0281 6.80488 29.1346 11.5951C29.0584 17.7478 25.675 15.6796 23.8121 12.6596C23.8121 12.2871 19.2347 21.6013 19.2347 21.6013L15.1897 21.1755Z" fill="white"/>
<path fill-rule="evenodd" clip-rule="evenodd" d="M14.5505 21.1755L12.2086 5.31461C12.2086 5.31461 11.3038 0.790498 7.41846 0.843728C3.53302 0.896957 0.712093 6.80488 0.605713 11.5951C0.681833 17.7478 4.06532 15.6796 5.92811 12.6596C5.92811 12.2871 10.5055 21.6013 10.5055 21.6013L14.5505 21.1755Z" fill="white"/>
<path d="M19.3429 29.5609L21.2244 28.195V27.4775L19.3429 26.1116V26.9463L20.1131 27.443L20.6742 27.8155V27.85L20.1131 28.2226L19.3429 28.7193V29.5609Z" fill="white"/>
<path d="M18.8732 26.1115L16.9917 27.4774V28.1949L18.8732 29.5608V28.7261L18.103 28.2293L17.5418 27.8568V27.8223L18.103 27.4498L18.8732 26.9531V26.1115Z" fill="white"/>
<path d="M11.5022 29.2648V28.8848H12.1462V26.8368H11.6182V26.5448C11.8942 26.4928 12.0902 26.4248 12.2582 26.3208H12.6062V28.8848H13.1822V29.2648H11.5022Z" fill="white"/>
<path d="M10.0169 29.3169C9.43694 29.3169 9.06494 28.8049 9.06494 27.7809C9.06494 26.7609 9.43694 26.2649 10.0169 26.2649C10.5929 26.2649 10.9689 26.7649 10.9689 27.7809C10.9689 28.8049 10.5929 29.3169 10.0169 29.3169ZM10.0169 28.9529C10.3169 28.9529 10.5289 28.6329 10.5289 27.7809C10.5289 26.9369 10.3169 26.6289 10.0169 26.6289C9.71694 26.6289 9.50494 26.9369 9.50494 27.7809C9.50494 28.6329 9.71694 28.9529 10.0169 28.9529Z" fill="white"/>
<path fill-rule="evenodd" clip-rule="evenodd" d="M12.2396 26.2559H12.6709V28.8199H13.2469V29.3295H11.4373V28.8199H12.0813V26.9015H11.5533V26.4909L11.6061 26.481C11.8775 26.4298 12.0651 26.3639 12.224 26.2656L12.2396 26.2559ZM12.2763 26.3855C12.1143 26.4828 11.9286 26.5481 11.6829 26.5981V26.7719H12.2109V28.9495H11.5669V29.1999H13.1173V28.9495H12.5413V26.3855H12.2763Z" fill="white"/>
<path fill-rule="evenodd" clip-rule="evenodd" d="M9.37748 26.6759C9.22177 26.9125 9.12966 27.2771 9.12966 27.7808C9.12966 28.2865 9.22176 28.6563 9.37777 28.8976C9.53155 29.1355 9.74923 29.252 10.0168 29.252C10.2823 29.252 10.5001 29.1355 10.6544 28.8975C10.8109 28.6562 10.904 28.2863 10.904 27.7808C10.904 27.2793 10.811 26.9147 10.6547 26.6774C10.5006 26.4436 10.2829 26.3296 10.0168 26.3296C9.74843 26.3296 9.53087 26.4428 9.37748 26.6759ZM9.26917 26.6046C9.44678 26.3347 9.70523 26.2 10.0168 26.2C10.3267 26.2 10.585 26.336 10.763 26.6061C10.9387 26.8729 11.0337 27.2663 11.0337 27.7808C11.0337 28.2992 10.9387 28.6974 10.7632 28.9681C10.5856 29.242 10.3273 29.3816 10.0168 29.3816C9.70442 29.3816 9.44611 29.2421 9.26889 28.968C9.09389 28.6973 9 28.2991 9 27.7808C9 27.2645 9.09389 26.871 9.26917 26.6046ZM9.7739 26.6364C9.84771 26.5864 9.93014 26.564 10.0168 26.564C10.1035 26.564 10.1859 26.5864 10.2598 26.6364C10.3331 26.6861 10.3944 26.7607 10.4434 26.8595C10.5406 27.0554 10.5937 27.3554 10.5937 27.7808C10.5937 28.2102 10.5405 28.5149 10.4437 28.7146C10.3948 28.8152 10.3337 28.8915 10.2605 28.9426C10.1867 28.9941 10.104 29.0176 10.0168 29.0176C9.92962 29.0176 9.84695 28.9941 9.77316 28.9426C9.69993 28.8915 9.63884 28.8152 9.59 28.7146C9.49311 28.5149 9.44 28.2102 9.44 27.7808C9.44 27.3554 9.4931 27.0554 9.59025 26.8595C9.63925 26.7607 9.70054 26.6861 9.7739 26.6364ZM9.70641 26.9171C9.62256 27.0862 9.56966 27.3622 9.56966 27.7808C9.56966 28.2034 9.62255 28.4847 9.70665 28.658C9.74832 28.7438 9.79647 28.8008 9.84737 28.8363C9.8977 28.8714 9.95403 28.888 10.0168 28.888C10.0796 28.888 10.136 28.8714 10.1863 28.8363C10.2372 28.8008 10.2853 28.7438 10.327 28.658C10.4111 28.4847 10.464 28.2034 10.464 27.7808C10.464 27.3622 10.4111 27.0862 10.3272 26.9171C10.2858 26.8334 10.2378 26.7782 10.187 26.7438C10.1367 26.7097 10.0801 26.6936 10.0168 26.6936C9.95351 26.6936 9.89695 26.7097 9.84664 26.7438C9.79586 26.7782 9.7479 26.8334 9.70641 26.9171Z" fill="white"/>
<path fill-rule="evenodd" clip-rule="evenodd" d="M14.9747 42.5688C14.6785 42.5831 14.4131 42.5921 14.2335 42.5903C14.0624 42.5887 13.8097 42.5628 13.526 42.5157C13.5398 42.6016 13.5489 42.6891 13.5489 42.7789C13.5489 43.6901 12.8097 44.4288 11.8977 44.4288C10.9858 44.4288 10.2466 43.6901 10.2466 42.7789C10.2466 42.6715 10.2576 42.5667 10.2772 42.465C10.143 42.5559 10.0034 42.6026 9.85814 42.5903C8.55908 42.4812 8.98225 40.5758 10.0116 38.8291C11.041 37.0823 12.7751 36.2959 12.7751 36.2959L14.9747 36.0959V42.5688ZM11.0977 41.336C11.2355 41.2595 11.3853 41.2025 11.5437 41.168C11.7331 40.5381 12.2255 39.6931 12.468 38.7522C12.1781 38.3564 11.7249 40.0702 11.0977 41.336Z" fill="white"/>
<path fill-rule="evenodd" clip-rule="evenodd" d="M19.9419 42.5903C19.7967 42.6026 19.6571 42.556 19.5229 42.4651C19.5425 42.5668 19.5535 42.6715 19.5535 42.7789C19.5535 43.6901 18.8143 44.4288 17.9024 44.4288C16.9904 44.4288 16.2512 43.6901 16.2512 42.7789C16.2512 42.6891 16.2604 42.6016 16.2742 42.5156C15.9904 42.5628 15.7376 42.5887 15.5664 42.5903C15.3869 42.5921 15.1215 42.5831 14.8254 42.5688V36.0959L17.0249 36.2959C17.0249 36.2959 18.7589 37.0823 19.7883 38.8291C20.8177 40.5758 21.2409 42.4812 19.9419 42.5903ZM17.3319 38.7522C17.5746 39.6931 18.0669 40.5381 18.2564 41.1679C18.4146 41.2025 18.5644 41.2594 18.7022 41.3359C18.0751 40.0701 17.6218 38.3564 17.3319 38.7522Z" fill="white"/>
</svg>
