<svg width="20" height="20" viewBox="0 0 20 20" fill="none" xmlns="http://www.w3.org/2000/svg">
<path d="M7.64162 5.83342C7.48641 5.98955 7.39929 6.20076 7.39929 6.42092C7.39929 6.64107 7.48641 6.85228 7.64162 7.00842L10.5916 10.0001L7.64162 12.9501C7.48641 13.1062 7.39929 13.3174 7.39929 13.5376C7.39929 13.7577 7.48641 13.9689 7.64162 14.1251C7.71909 14.2032 7.81126 14.2652 7.91281 14.3075C8.01435 14.3498 8.12328 14.3716 8.23329 14.3716C8.3433 14.3716 8.45222 14.3498 8.55377 14.3075C8.65532 14.2652 8.74748 14.2032 8.82495 14.1251L12.3583 10.5918C12.4364 10.5143 12.4984 10.4221 12.5407 10.3206C12.583 10.219 12.6048 10.1101 12.6048 10.0001C12.6048 9.89007 12.583 9.78115 12.5407 9.6796C12.4984 9.57805 12.4364 9.48589 12.3583 9.40842L8.82495 5.83342C8.74748 5.75531 8.65532 5.69332 8.55377 5.65101C8.45222 5.6087 8.3433 5.58692 8.23329 5.58692C8.12328 5.58692 8.01435 5.6087 7.9128 5.65101C7.81126 5.69332 7.71909 5.75531 7.64162 5.83342Z" fill="white"/>
</svg>
